<?xml version="1.0" standalone="no"?>
<!DOCTYPE svg PUBLIC "-//W3C//DTD SVG 20010904//EN"
 "http://www.w3.org/TR/2001/REC-SVG-20010904/DTD/svg10.dtd">
<svg version="1.0" xmlns="http://www.w3.org/2000/svg"
 width="200.000000pt" height="200.000000pt" viewBox="0 0 200.000000 200.000000"
 preserveAspectRatio="xMidYMid meet">
<g transform="translate(0.000000,200.000000) scale(0.100000,-0.100000)"
 stroke="none">
<path d="M930 1913 c-31 -17 -49 -47 -155 -256 -66 -130 -124 -240 -130 -246
-5 -5 -122 -26 -260 -46 -137 -21 -262 -43 -277 -51 -36 -19 -66 -59 -74 -101
-14 -73 4 -98 206 -297 156 -153 189 -191 185 -209 -25 -110 -85 -496 -79
-519 15 -70 104 -128 171 -112 15 3 130 60 255 125 l227 119 228 -121 c202
-108 234 -122 278 -123 87 -1 145 58 145 146 0 24 -18 148 -40 277 l-41 234
190 184 c150 145 193 192 202 223 21 69 -8 143 -69 174 -15 8 -139 30 -277 51
-137 20 -253 39 -257 42 -5 2 -62 112 -128 242 -87 174 -126 243 -146 256 -41
27 -111 30 -154 8z"/>
</g>
</svg>
